<?xml version="1.0" encoding="utf-8"?>
<!-- Generator: Adobe Illustrator 28.2.0, SVG Export Plug-In . SVG Version: 6.00 Build 0)  -->
<svg version="1.1" id="Layer_1" xmlns="http://www.w3.org/2000/svg" xmlns:xlink="http://www.w3.org/1999/xlink" x="0px" y="0px"
	 viewBox="0 0 580 160" style="enable-background:new 0 0 580 160;" xml:space="preserve">
<style type="text/css">
	.st0{fill:#FFFFFF;}
	.st1{fill:#44D62C;}
</style>
<g>
	<g>
		<path class="st0" d="M174.1,154l16.4-103.1c1.8-11.2,6.5-19.8,14-25.7s17-8.9,28.5-8.9h54.2l-4.1,27.2h-46.3
			c-4.2,0-7.7,1.2-10.2,3.5c-2.6,2.3-4.2,5.5-4.8,9.7l-3.1,19.5h52.7l-4.1,26.8h-52.9l-7.9,51H174.1z"/>
		<polygon class="st0" points="282.4,154 298.3,52.5 328.4,52.5 312.3,154 		"/>
		<path class="st1" d="M316.4,41.3c-4.8,0-8.8-1.6-12.1-4.9c-3.3-3.3-4.9-7.2-4.9-11.9c0-3.3,0.9-6.4,2.6-9.3
			c1.7-2.8,4.1-5.1,6.9-6.8c2.9-1.7,6-2.5,9.4-2.5c4.8,0,8.8,1.6,12,4.9s4.8,7.2,4.8,11.9c0,3.3-0.8,6.4-2.5,9.2s-3.9,5-6.8,6.8
			C323.1,40.4,319.9,41.3,316.4,41.3z"/>
		<path class="st0" d="M448.5,52.5l-8.9,58.1c-1.3,8.4-4.2,15.8-8.8,22.4c-4.6,6.6-10.6,11.7-18.2,15.3c-7.6,3.7-16.5,5.5-26.8,5.5
			c-9,0-16.9-1.7-23.5-5.1c-6.7-3.4-11.9-8.1-15.5-14c-3.7-5.9-5.5-12.7-5.5-20.3c0-1.3,0.1-2.7,0.4-4.2s0.4-3,0.6-4.2l8.5-53.5
			h29.7l-8.7,54.6c-0.1,0.8-0.2,1.5-0.2,2.3s0,1.4,0,1.9c0,4.9,1.5,8.9,4.6,12s7.2,4.6,12.4,4.6c3.7,0,7.1-0.9,10.1-2.6
			s5.6-4.1,7.6-7c2.1-3,3.3-6.4,3.9-10.2l8.7-55.6C418.9,52.5,448.5,52.5,448.5,52.5z"/>
		<path class="st0" d="M569.1,52.5l-8.9,58.1c-1.3,8.4-4.2,15.8-8.8,22.4c-4.6,6.6-10.6,11.7-18.2,15.3c-7.6,3.7-16.5,5.5-26.8,5.5
			c-9,0-16.9-1.7-23.5-5.1c-6.7-3.4-11.9-8.1-15.5-14c-3.7-5.9-5.5-12.7-5.5-20.3c0-1.3,0.1-2.7,0.4-4.2s0.4-3,0.6-4.2l8.5-53.5H501
			l-8.7,54.6c-0.1,0.8-0.2,1.5-0.2,2.3s0,1.4,0,1.9c0,4.9,1.5,8.9,4.6,12s7.2,4.6,12.4,4.6c3.7,0,7.1-0.9,10.1-2.6s5.6-4.1,7.6-7
			c2.1-3,3.3-6.4,3.9-10.2l8.7-55.6C539.4,52.5,569.1,52.5,569.1,52.5z"/>
		<g>
			<path class="st0" d="M141.5,18c-3-1.8-6.7-2.1-10.2-1.2L20.3,48c-6.6,1.9-10.8,8.6-9.1,15.2C13.1,70,20,74,26.7,72.1L73.1,59
				c19.9-5.6,38.3,12.4,33.2,32.4l-11.8,46.4c-1.7,6.5,1.9,13.4,8.3,15.4c1.2,0.4,2.4,0.5,3.6,0.5c5.5,0,10.6-3.7,12-9.3l28.7-112.6
				C148.5,26.5,146.3,21,141.5,18z"/>
			<circle class="st1" cx="68.9" cy="96.8" r="18.9"/>
		</g>
	</g>
</g>
</svg>
