<?xml version="1.0" encoding="UTF-8"?>
<svg id="Layer_1" xmlns="http://www.w3.org/2000/svg" version="1.1" viewBox="0 0 1661.73 416">
  <!-- Generator: Adobe Illustrator 30.0.0, SVG Export Plug-In . SVG Version: 2.1.1 Build 123)  -->
  <defs>
    <style>
      .st0 {
        isolation: isolate;
      }

      .st1 {
        fill: #fff;
      }

      .st2 {
        fill: #003ba0;
      }

      .st3 {
        fill: #44d62c;
      }
    </style>
  </defs>
  <g>
    <path class="st1" d="M112.1,314.49l23.65-148.92c2.6-16.17,9.34-28.53,20.21-37.08,10.88-8.55,24.58-12.83,41.13-12.83h78.35l-5.86,39.31h-66.92c-6.13,0-11.06,1.67-14.78,5.02s-6.04,7.99-6.97,13.94l-4.46,28.16h76.12l-5.86,38.76h-76.39l-11.38,73.64h-46.84Z"/>
    <polygon class="st1" points="268.45 314.49 291.43 167.8 334.93 167.8 311.66 314.49 268.45 314.49"/>
    <path class="st3" d="M317.64,151.63c-6.88,0-12.69-2.37-17.43-7.11s-7.11-10.46-7.11-17.15c0-4.83,1.25-9.29,3.76-13.38s5.86-7.34,10.04-9.76c4.18-2.41,8.69-3.62,13.52-3.62,6.88,0,12.64,2.37,17.29,7.11,4.64,4.74,6.97,10.46,6.97,17.15,0,4.84-1.21,9.25-3.62,13.24-2.42,4-5.67,7.25-9.76,9.76s-8.64,3.76-13.66,3.76h0Z"/>
    <path class="st1" d="M508.34,167.8l-12.83,83.92c-1.86,12.08-6.09,22.86-12.69,32.34s-15.38,16.87-26.35,22.17c-10.97,5.3-23.89,7.95-38.76,7.95-13.01,0-24.35-2.47-34.02-7.39-9.67-4.92-17.15-11.66-22.45-20.21-5.3-8.55-7.95-18.31-7.95-29.28,0-1.86.18-3.9.56-6.13.37-2.23.65-4.27.84-6.13l12.27-77.23h42.93l-12.55,78.9c-.19,1.11-.28,2.23-.28,3.35v2.79c0,7.07,2.23,12.83,6.69,17.29s10.41,6.69,17.84,6.69c5.39,0,10.27-1.25,14.64-3.76,4.36-2.51,8.04-5.9,11.01-10.18,2.97-4.27,4.83-9.2,5.58-14.78l12.55-80.3h42.97Z"/>
    <path class="st1" d="M682.6,167.8l-12.83,83.92c-1.86,12.08-6.09,22.86-12.69,32.34s-15.38,16.87-26.35,22.17c-10.97,5.3-23.89,7.95-38.76,7.95-13.01,0-24.35-2.47-34.02-7.39-9.67-4.92-17.15-11.66-22.45-20.21s-7.95-18.31-7.95-29.28c0-1.86.18-3.9.56-6.13.37-2.23.65-4.27.84-6.13l12.27-77.23h42.93l-12.55,78.9c-.19,1.11-.28,2.23-.28,3.35v2.79c0,7.07,2.23,12.83,6.69,17.29s10.41,6.69,17.84,6.69c5.39,0,10.27-1.25,14.64-3.76,4.36-2.51,8.04-5.9,11.01-10.18,2.97-4.27,4.83-9.2,5.58-14.78l12.55-80.3h42.97Z"/>
  </g>
  <path class="st3" d="M1449.9,314.7h-625.7c-54.9,0-99.4-44.5-99.4-99.4h0c0-54.9,44.5-99.4,99.4-99.4h625.7c54.9,0,99.4,44.5,99.4,99.4h0c0,54.9-44.5,99.4-99.4,99.4Z"/>
  <g class="st0">
    <g class="st0">
      <path class="st2" d="M822.63,193.71c4.08-7.14,9.64-12.71,16.7-16.7,7.06-3.99,14.97-5.98,23.74-5.98,10.26,0,19.24,2.63,26.96,7.89,7.71,5.26,13.11,12.54,16.17,21.83h-21.17c-2.1-4.38-5.06-7.67-8.88-9.86-3.81-2.19-8.22-3.29-13.22-3.29-5.35,0-10.1,1.25-14.27,3.75-4.17,2.5-7.41,6.03-9.73,10.58-2.32,4.56-3.49,9.91-3.49,16.04s1.16,11.38,3.49,15.98c2.32,4.6,5.57,8.15,9.73,10.65s8.92,3.75,14.27,3.75c5,0,9.4-1.12,13.22-3.35s6.77-5.54,8.88-9.93h21.17c-3.07,9.38-8.44,16.68-16.11,21.89-7.67,5.22-16.68,7.82-27.02,7.82-8.77,0-16.68-1.99-23.74-5.98-7.06-3.99-12.62-9.53-16.7-16.63s-6.11-15.17-6.11-24.2,2.04-17.12,6.11-24.26h0Z"/>
      <path class="st2" d="M940.39,166.68v97.31h-18.41v-97.31h18.41Z"/>
      <path class="st2" d="M971.95,260.51c-5.61-3.11-10.02-7.52-13.22-13.22-3.2-5.7-4.8-12.27-4.8-19.73s1.64-14.03,4.93-19.72c3.29-5.7,7.78-10.1,13.48-13.22,5.7-3.11,12.05-4.67,19.07-4.67s13.37,1.56,19.07,4.67,10.19,7.52,13.48,13.22,4.93,12.27,4.93,19.72-1.69,14.03-5.06,19.73c-3.38,5.7-7.94,10.1-13.68,13.22-5.74,3.11-12.16,4.67-19.26,4.67s-13.33-1.56-18.94-4.67ZM1000.29,246.7c2.94-1.62,5.28-4.05,7.04-7.3,1.75-3.24,2.63-7.19,2.63-11.83,0-6.92-1.82-12.25-5.46-15.98s-8.09-5.59-13.35-5.59-9.67,1.86-13.22,5.59-5.33,9.05-5.33,15.98,1.73,12.25,5.19,15.98,7.82,5.59,13.08,5.59c3.33,0,6.46-.81,9.4-2.43h.02Z"/>
      <path class="st2" d="M1111.2,191.14v72.85h-18.54v-9.21c-2.37,3.16-5.46,5.63-9.27,7.43s-7.96,2.7-12.43,2.7c-5.7,0-10.74-1.2-15.12-3.62-4.38-2.41-7.82-5.96-10.32-10.65-2.5-4.69-3.75-10.28-3.75-16.77v-42.74h18.41v40.11c0,5.79,1.45,10.24,4.34,13.35s6.84,4.67,11.83,4.67,9.07-1.56,11.97-4.67c2.89-3.11,4.34-7.56,4.34-13.35v-40.11h18.54Z"/>
      <path class="st2" d="M1129.02,207.71c2.94-5.7,6.95-10.08,12.03-13.15,5.08-3.07,10.74-4.6,16.96-4.6,4.73,0,9.25,1.03,13.54,3.09s7.71,4.8,10.26,8.22v-34.58h18.67v97.31h-18.67v-10.78c-2.28,3.6-5.48,6.49-9.6,8.68s-8.9,3.29-14.33,3.29c-6.14,0-11.75-1.58-16.83-4.73-5.09-3.16-9.1-7.6-12.03-13.35-2.94-5.74-4.41-12.34-4.41-19.79s1.47-13.89,4.41-19.59v-.02ZM1179.32,216.06c-1.75-3.2-4.12-5.65-7.1-7.36s-6.18-2.56-9.6-2.56-6.57.83-9.47,2.5c-2.89,1.67-5.24,4.1-7.04,7.3s-2.7,6.99-2.7,11.38.9,8.22,2.7,11.51c1.8,3.29,4.16,5.81,7.1,7.56s6.07,2.63,9.4,2.63,6.62-.85,9.6-2.56c2.98-1.71,5.35-4.16,7.1-7.36s2.63-7.04,2.63-11.51-.88-8.3-2.63-11.51v-.02Z"/>
      <path class="st2" d="M1236.92,187.07v23.01h30.9v14.6h-30.9v24.33h34.85v14.99h-53.26v-91.92h53.26v14.99h-34.85Z"/>
      <path class="st2" d="M1290.11,193.71c4.08-7.14,9.64-12.71,16.7-16.7,7.06-3.99,14.97-5.98,23.74-5.98,10.26,0,19.24,2.63,26.96,7.89,7.71,5.26,13.1,12.54,16.17,21.83h-21.17c-2.1-4.38-5.06-7.67-8.88-9.86-3.81-2.19-8.22-3.29-13.21-3.29-5.35,0-10.11,1.25-14.27,3.75s-7.41,6.03-9.73,10.58c-2.32,4.56-3.49,9.91-3.49,16.04s1.16,11.38,3.49,15.98c2.32,4.6,5.57,8.15,9.73,10.65s8.92,3.75,14.27,3.75c5,0,9.4-1.12,13.21-3.35s6.77-5.54,8.88-9.93h21.17c-3.07,9.38-8.44,16.68-16.11,21.89-7.67,5.22-16.68,7.82-27.02,7.82-8.77,0-16.68-1.99-23.74-5.98-7.06-3.99-12.62-9.53-16.7-16.63s-6.11-15.17-6.11-24.2,2.04-17.12,6.11-24.26h0Z"/>
      <path class="st2" d="M1436.79,263.99l-20.25-35.77h-8.68v35.77h-18.41v-91.79h34.45c7.1,0,13.15,1.25,18.15,3.75s8.74,5.87,11.24,10.12,3.75,9.01,3.75,14.27c0,6.05-1.75,11.51-5.26,16.37-3.51,4.87-8.72,8.22-15.65,10.06l21.96,37.21h-21.3,0ZM1407.86,214.42h15.39c5,0,8.72-1.2,11.18-3.62,2.45-2.41,3.68-5.76,3.68-10.06s-1.23-7.47-3.68-9.8c-2.46-2.32-6.18-3.49-11.18-3.49h-15.39v26.96h0Z"/>
    </g>
  </g>
</svg>